<?xml version="1.0" encoding="utf-8"?>
<!-- Generator: Adobe Illustrator 25.2.0, SVG Export Plug-In . SVG Version: 6.00 Build 0)  -->
<svg version="1.1" xmlns="http://www.w3.org/2000/svg" xmlns:xlink="http://www.w3.org/1999/xlink" x="0px" y="0px"
	 viewBox="0 0 16 16" style="enable-background:new 0 0 16 16;" xml:space="preserve">
<style type="text/css">
	.st0{display:none;}
	.st1{display:inline;}
	.st2{clip-path:url(#SVGID_2_);fill:#152538;}
	.st3{clip-path:url(#SVGID_4_);fill:#152538;}
	.st4{clip-path:url(#SVGID_6_);fill:#152538;}
	.st5{fill:#152538;}
</style>
<g id="Layer_2" class="st0">
	<rect x="-35.98" y="0.11" class="st1" width="16" height="15.87"/>
	<rect x="0.02" y="0.11" class="st1" width="16" height="15.87"/>
</g>
<g id="Layer_1">
	<g>
		<g>
			<defs>
				<rect id="SVGID_1_" x="-35.97" y="3.15" width="15.98" height="9.99"/>
			</defs>
			<clipPath id="SVGID_2_">
				<use xlink:href="#SVGID_1_"  style="overflow:visible;"/>
			</clipPath>
			<path class="st2" d="M-30.69,7.89c0,0-0.84-0.54-0.85-0.7l-0.11,0.2C-31.66,7.37-31.21,7.88-30.69,7.89"/>
			<path class="st2" d="M-31.15,8.38c0,0-0.71-0.27-0.82-0.5l-0.09,0.21C-32.07,8.09-31.67,8.44-31.15,8.38"/>
		</g>
		<g>
			<defs>
				<rect id="SVGID_3_" x="-35.97" y="3.15" width="15.98" height="9.99"/>
			</defs>
			<clipPath id="SVGID_4_">
				<use xlink:href="#SVGID_3_"  style="overflow:visible;"/>
			</clipPath>
			<path class="st3" d="M-31.34,8.91c0,0-0.8-0.17-0.92-0.29l-0.05,0.22C-32.32,8.83-31.73,9.11-31.34,8.91"/>
			<path class="st3" d="M-27.52,4.05c-0.01,0.13-0.07,0.35-0.37,0.32c-0.42-0.05-0.24-0.39-0.24-0.39
				c-0.23,0.03-0.16,0.32-0.16,0.32c-0.14-0.18-0.04-0.31,0.06-0.39c0.08-0.06,0.16-0.09,0.25-0.11c0.15-0.03,0.25-0.01,0.32,0.02
				C-27.57,3.85-27.51,3.95-27.52,4.05 M-23.81,3.17c-0.56-0.03-5.83-0.22-8.53,3.01c0,0,0.28-0.55,0.81-1.08
				c0.03-0.03,0.02-0.07-0.02-0.08c-0.31-0.08-1.53-0.42-1.8-0.54c-0.02-0.01-0.04,0.01-0.03,0.03l0.3,2.01c0,0,0.08,0.43-0.01,0.75
				c-0.09,0.33-0.35,0.94-0.38,1.94c0,0-0.01,0.17-0.19,0.36c-0.18,0.21-1.93,1.9-2.34,3.53c-0.01,0.04,0.03,0.08,0.08,0.05
				c0.2-0.13,0.66-0.46,1.04-0.74c0.45-0.33,1.49-1.08,1.96-1.23c0.07-0.03,0.15-0.01,0.2,0.05c0.23,0.23,0.94,0.93,1.5,1.14
				c0.02,0.01,0.03-0.02,0.02-0.03c-0.31-0.23-1.37-1.23-1.11-3.5c-0.46-0.29-0.52-0.63-0.52-0.63l0.57,0.41l0.2-0.52
				c-0.46-0.31-0.52-0.81-0.52-0.81c0.03,0.11,0.62,0.6,0.62,0.6l0.31-0.5c0,0-0.36-0.34-0.36-0.91c0,0,0.4,0.59,0.47,0.7
				c0,0,1.64-2.59,6.95-3.54c0,0,0.13,0.06,0.14,0.38c0,0,0.19-0.03,0.18-0.44c0,0,0.66-0.13,0.89,0.02
				c0.24,0.15,0.19,0.46,0.07,0.65c-0.12,0.18-0.43,0.34-0.57,0.35c-0.11,0,0.01,0.03,0.07,0.05c0.03,0.01,0.06,0.03,0.08,0.05
				c0.03,0.03,0.03,0.08,0,0.13c-0.06,0.1-0.27,0.45-0.35,0.58c0,0.01,0.01,0.02,0.01,0.01c0.15-0.16,0.71-0.75,0.97-1.28
				C-22.8,3.51-23.25,3.2-23.81,3.17"/>
		</g>
		<g>
			<defs>
				<rect id="SVGID_5_" x="-35.97" y="3.15" width="15.98" height="9.99"/>
			</defs>
			<clipPath id="SVGID_6_">
				<use xlink:href="#SVGID_5_"  style="overflow:visible;"/>
			</clipPath>
			<path class="st4" d="M-25.81,5.97c0.21-0.14,0.35-0.71,0.35-0.71c0.25,0.04,0.37,0.28,0.37,0.28
				C-25.19,5.85-25.81,5.97-25.81,5.97 M-26.32,5.8c0.14-0.14,0.15-0.62,0.15-0.62c0.24-0.04,0.6,0.03,0.6,0.03
				C-25.73,5.56-26.32,5.8-26.32,5.8 M-26.9,5.73c0.06-0.11,0.08-0.44,0.08-0.44l0.53-0.08C-26.45,5.49-26.9,5.73-26.9,5.73
				 M-26.61,6.18c-0.02,0.05-0.07,0.08-0.12,0.08l-0.29-0.03l0.45-0.43C-26.54,5.92-26.58,6.07-26.61,6.18 M-27.08,6.23h-0.33
				l0.33-0.32V6.23z M-27.89,6.05V5.66l0.43-0.18C-27.54,5.86-27.89,6.05-27.89,6.05 M-27.52,6.28c0,0-0.36,0.06-0.5,0.08
				c0,0,0.37-0.22,0.5-0.45V6.28z M-27.38,5.45l0.44-0.12c-0.05,0.23-0.44,0.52-0.44,0.52V5.45z M-24.89,5.94
				c0.11-0.74-0.54-0.86-0.54-0.86C-26.8,4.83-28,5.66-28,5.66V5.8l-0.31,0.32l-0.04-0.27c-1.01,0.54-1.71,1.62-1.71,1.62
				c1.05-0.81,1.56-0.9,1.56-0.9l0.32-0.44l0.08,0.31l0.58-0.06c1.22-0.16,1.5,0.72,1.5,0.72c0.11-0.58-0.65-0.79-0.65-0.79
				c0.2-0.05,0.66-0.47,0.66-0.47c0.08,0.21-0.14,0.61-0.14,0.61c0.14-0.02,0.45-0.25,0.45-0.25c-0.03,0.19-0.25,0.48-0.25,0.48
				c0.1,0.01,0.45-0.19,0.45-0.19c-0.07,0.31-0.35,0.6-0.35,0.6c0.43-0.11,0.67-0.56,0.67-0.56l-0.06-0.09
				C-25.09,6.32-25,6.1-25,6.1c-0.07,0.05-0.39,0.09-0.39,0.09l0.38-0.56L-24.89,5.94z"/>
			<path class="st4" d="M-30.38,10.83c-0.16-0.16-0.24-0.36-0.24-0.61v-0.13c0-0.02,0.01-0.03,0.02-0.04
				c0.01-0.01,0.03-0.02,0.04-0.02h0.43c0.02,0,0.03,0.01,0.04,0.02c0.01,0.01,0.02,0.03,0.02,0.04v0.09c0,0.13,0.03,0.22,0.09,0.29
				c0.06,0.08,0.14,0.11,0.24,0.11c0.1,0,0.18-0.03,0.24-0.11c0.06-0.07,0.09-0.17,0.09-0.28c0-0.08-0.02-0.15-0.05-0.21
				c-0.03-0.06-0.08-0.12-0.14-0.17c-0.06-0.05-0.16-0.13-0.3-0.23c-0.16-0.11-0.29-0.21-0.38-0.3c-0.09-0.08-0.18-0.19-0.24-0.32
				c-0.07-0.13-0.09-0.27-0.09-0.43c0-0.26,0.08-0.47,0.24-0.62c0.16-0.15,0.36-0.23,0.63-0.23s0.47,0.08,0.63,0.24
				c0.15,0.16,0.24,0.37,0.24,0.64v0.11c0,0.02-0.01,0.03-0.02,0.04c-0.01,0.01-0.03,0.02-0.04,0.02h-0.42
				c-0.02,0-0.03-0.01-0.04-0.02c-0.01-0.01-0.02-0.03-0.02-0.04V8.56c0-0.13-0.03-0.22-0.09-0.29c-0.06-0.08-0.14-0.11-0.24-0.11
				c-0.09,0-0.17,0.03-0.23,0.1c-0.06,0.07-0.09,0.16-0.09,0.28c0,0.11,0.03,0.21,0.09,0.28c0.07,0.08,0.19,0.18,0.38,0.33
				c0.19,0.14,0.34,0.26,0.44,0.34c0.1,0.09,0.18,0.18,0.23,0.29c0.05,0.11,0.08,0.23,0.08,0.38c0,0.27-0.08,0.48-0.24,0.64
				c-0.16,0.16-0.37,0.24-0.63,0.24C-30,11.06-30.22,10.99-30.38,10.83"/>
			<path class="st4" d="M-27.29,7.75c0.01-0.01,0.03-0.02,0.04-0.02h0.44c0.02,0,0.03,0.01,0.04,0.02c0.01,0.01,0.02,0.03,0.02,0.04
				v3.18c0,0.02-0.01,0.03-0.02,0.04c-0.01,0.01-0.03,0.02-0.04,0.02h-0.44c-0.02,0-0.03-0.01-0.04-0.02
				c-0.01-0.01-0.02-0.03-0.02-0.04V9.64c0-0.02-0.01-0.03-0.03-0.03h-0.6c-0.02,0-0.03,0.01-0.03,0.03v1.33
				c0,0.02-0.01,0.03-0.02,0.04c-0.01,0.01-0.03,0.02-0.04,0.02h-0.44c-0.02,0-0.03-0.01-0.04-0.02c-0.01-0.01-0.02-0.03-0.02-0.04
				V7.79c0-0.02,0.01-0.03,0.02-0.04c0.01-0.01,0.03-0.02,0.04-0.02h0.44c0.02,0,0.03,0.01,0.04,0.02c0.01,0.01,0.02,0.03,0.02,0.04
				v1.32c0,0.02,0.01,0.03,0.03,0.03h0.6c0.02,0,0.03-0.01,0.03-0.03V7.79C-27.3,7.78-27.29,7.77-27.29,7.75"/>
			<path class="st4" d="M-25.71,10.03h0.52c0.02,0,0.03-0.01,0.03-0.03l-0.28-1.48c0-0.01-0.01-0.02-0.02-0.02
				c-0.01,0-0.01,0.01-0.02,0.02l-0.27,1.48C-25.75,10.02-25.74,10.03-25.71,10.03 M-24.99,10.97l-0.09-0.49
				c0-0.02-0.01-0.03-0.03-0.03h-0.69c-0.02,0-0.03,0.01-0.03,0.03l-0.09,0.49c0,0.03-0.03,0.05-0.06,0.05h-0.43
				c-0.04,0-0.06-0.02-0.05-0.06l0.7-3.18c0.01-0.03,0.03-0.05,0.06-0.05h0.5c0.03,0,0.06,0.02,0.06,0.05l0.7,3.18v0.02
				c0,0.03-0.02,0.04-0.05,0.04h-0.44C-24.96,11.02-24.99,11-24.99,10.97"/>
			<path class="st4" d="M-23.59,8.23v0.93c0,0.02,0.01,0.03,0.03,0.03h0.29c0.11,0,0.2-0.04,0.28-0.13
				c0.07-0.08,0.11-0.21,0.11-0.36c0-0.15-0.03-0.27-0.11-0.36c-0.07-0.09-0.16-0.13-0.28-0.13h-0.29
				C-23.59,8.2-23.59,8.21-23.59,8.23 M-22.89,10.98l-0.41-1.35c-0.01-0.01-0.02-0.02-0.03-0.02h-0.25c-0.02,0-0.03,0.01-0.03,0.03
				v1.33c0,0.02-0.01,0.03-0.02,0.04c-0.01,0.01-0.03,0.02-0.04,0.02h-0.44c-0.02,0-0.03-0.01-0.04-0.02
				c-0.01-0.01-0.02-0.03-0.02-0.04V7.79c0-0.02,0.01-0.03,0.02-0.04c0.01-0.01,0.03-0.02,0.04-0.02h0.89
				c0.17,0,0.31,0.04,0.44,0.12c0.13,0.08,0.23,0.19,0.3,0.34c0.07,0.14,0.11,0.31,0.11,0.5c0,0.19-0.03,0.36-0.11,0.5
				c-0.08,0.14-0.18,0.25-0.32,0.32c-0.01,0-0.02,0.01-0.02,0.03l0.46,1.42c0,0.01,0.01,0.02,0.01,0.03c0,0.03-0.02,0.04-0.05,0.04
				h-0.46C-22.86,11.02-22.88,11.01-22.89,10.98"/>
			<path class="st4" d="M-21.97,11.01c-0.01-0.01-0.02-0.03-0.02-0.04V7.79c0-0.02,0.01-0.03,0.02-0.04
				c0.01-0.01,0.03-0.02,0.04-0.02h0.44c0.02,0,0.03,0.01,0.04,0.02c0.01,0.01,0.02,0.03,0.02,0.04v1.3c0,0.01,0,0.02,0.01,0.03
				c0.01,0,0.01,0,0.02-0.01l0.71-1.32c0.02-0.03,0.04-0.04,0.07-0.04h0.46c0.03,0,0.03,0.01,0.04,0.02
				c0.01,0.01,0.01,0.03-0.01,0.05l-0.71,1.32c0,0.01-0.01,0.03-0.01,0.03l0.77,1.81c0,0.01,0.01,0.02,0.01,0.03
				c0,0.03-0.02,0.03-0.05,0.03h-0.46c-0.03,0-0.06-0.02-0.07-0.04l-0.56-1.36c0-0.01-0.01-0.02-0.02-0.01
				c-0.01,0-0.01,0.01-0.02,0.01l-0.19,0.32c-0.01,0.01-0.01,0.03-0.01,0.03v1c0,0.02-0.01,0.03-0.02,0.04
				c-0.01,0.01-0.03,0.02-0.04,0.02h-0.44C-21.95,11.02-21.96,11.02-21.97,11.01"/>
		</g>
	</g>
	<polygon class="st5" points="15.11,5.41 15.11,5.03 14.96,5.03 14.96,4.93 15.39,4.93 15.39,5.03 15.24,5.03 15.24,5.41 	"/>
	<polygon class="st5" points="15.85,4.93 15.72,5.2 15.58,4.93 15.45,4.93 15.45,5.41 15.57,5.41 15.57,5.12 15.66,5.31 15.76,5.31 
		15.86,5.12 15.86,5.41 15.98,5.41 15.98,4.93 	"/>
	<path class="st5" d="M1.76,6.14C1.61,6.03,1.39,5.95,1.08,5.89C0.89,5.85,0.75,5.81,0.67,5.76C0.6,5.71,0.56,5.65,0.56,5.57
		c0-0.1,0.04-0.17,0.12-0.23c0.08-0.06,0.21-0.09,0.37-0.09c0.23,0,0.43,0.08,0.6,0.25l0.03,0.03L1.7,5.5l0.17-0.31l0.01-0.02
		L1.86,5.15c-0.21-0.2-0.48-0.3-0.8-0.3c-0.28,0-0.5,0.07-0.66,0.21C0.23,5.19,0.15,5.37,0.15,5.58c0,0.18,0.07,0.34,0.2,0.45
		c0.13,0.11,0.36,0.2,0.69,0.26c0.35,0.06,0.53,0.18,0.53,0.34c0,0.11-0.04,0.19-0.13,0.25c-0.09,0.06-0.23,0.1-0.4,0.1
		c-0.29,0-0.53-0.12-0.74-0.35L0.27,6.61L0.25,6.64L0.07,6.95L0.06,6.97l0.01,0.02C0.1,7.01,0.13,7.04,0.16,7.07
		C0.2,7.11,0.26,7.15,0.34,7.2c0.08,0.05,0.18,0.1,0.3,0.14c0.12,0.04,0.25,0.05,0.39,0.05c0.28,0,0.52-0.07,0.69-0.21
		c0.17-0.14,0.26-0.33,0.26-0.56C1.98,6.42,1.9,6.25,1.76,6.14"/>
	<path class="st5" d="M5.38,6.48c0,0.14-0.05,0.27-0.15,0.37c-0.1,0.1-0.22,0.15-0.37,0.15c-0.14,0-0.27-0.05-0.37-0.15
		c-0.1-0.1-0.15-0.22-0.15-0.37c0-0.14,0.05-0.26,0.15-0.37c0.1-0.1,0.22-0.15,0.37-0.15c0.14,0,0.26,0.05,0.37,0.15
		C5.33,6.21,5.38,6.33,5.38,6.48 M5.41,5.58H5.38v0.03v0.17C5.24,5.63,5.05,5.55,4.83,5.55c-0.26,0-0.47,0.09-0.64,0.27
		C4.02,6,3.94,6.22,3.94,6.48c0,0.26,0.09,0.48,0.25,0.66C4.36,7.31,4.58,7.4,4.83,7.4c0.22,0,0.4-0.08,0.55-0.23v0.17v0.03h0.03
		h0.35h0.03V7.34V5.61V5.58H5.76H5.41z"/>
	<path class="st5" d="M6.61,5.65C6.52,5.71,6.44,5.78,6.39,5.86V5.6V5.57H6.36H6.01H5.98V5.6v1.73v0.03h0.03h0.35h0.03V7.33V6.56
		c0-0.29,0.12-0.47,0.36-0.57C6.8,5.97,6.86,5.96,6.91,5.96c0.04,0,0.08,0.01,0.12,0.02l0.04,0.01V5.95V5.57V5.54H7.05
		C6.88,5.54,6.73,5.58,6.61,5.65"/>
	<polygon class="st5" points="7.2,4.76 7.2,4.79 7.2,7.33 7.2,7.36 7.23,7.36 7.58,7.36 7.61,7.36 7.61,7.33 7.61,6.67 8.31,7.35 
		8.32,7.36 8.33,7.36 8.79,7.36 8.87,7.36 8.81,7.31 7.91,6.44 8.76,5.62 8.81,5.57 8.73,5.57 8.27,5.57 8.26,5.57 8.25,5.58 
		7.61,6.24 7.61,4.79 7.61,4.76 	"/>
	<path class="st5" d="M10.49,6.02c-0.08,0.07-0.19,0.1-0.32,0.1H9.69V5.29h0.46c0.13,0,0.24,0.04,0.33,0.11
		c0.09,0.07,0.13,0.17,0.13,0.31C10.61,5.84,10.57,5.95,10.49,6.02 M10.77,5.1c-0.16-0.14-0.4-0.22-0.71-0.22H9.31H9.28v0.03v2.42
		v0.03h0.03h0.35h0.03V7.33V6.53h0.48c0.26,0,0.47-0.08,0.62-0.24c0.15-0.16,0.23-0.36,0.23-0.6C11.02,5.44,10.93,5.24,10.77,5.1"/>
	<path class="st5" d="M12.44,6.47c0,0.14-0.05,0.27-0.15,0.37c-0.1,0.1-0.22,0.15-0.37,0.15c-0.14,0-0.27-0.05-0.37-0.15
		c-0.1-0.1-0.15-0.22-0.15-0.37c0-0.14,0.05-0.26,0.15-0.37c0.1-0.1,0.22-0.15,0.37-0.15c0.14,0,0.26,0.05,0.37,0.15
		C12.39,6.2,12.44,6.32,12.44,6.47 M12.47,5.57h-0.03V5.6v0.17c-0.14-0.15-0.33-0.23-0.55-0.23c-0.26,0-0.47,0.09-0.64,0.27
		C11.09,5.99,11,6.21,11,6.47c0,0.26,0.09,0.48,0.25,0.66c0.17,0.18,0.38,0.27,0.64,0.27c0.22,0,0.4-0.08,0.55-0.23v0.17v0.03h0.03
		h0.35h0.03V7.33V5.6V5.57h-0.03H12.47z"/>
	<polygon class="st5" points="14.82,5.57 14.44,5.57 14.42,5.57 14.41,5.59 13.92,6.71 13.45,5.59 13.44,5.57 13.42,5.57 
		13.03,5.57 12.99,5.57 13.01,5.61 13.7,7.21 12.97,8.86 12.95,8.91 13,8.91 13.35,9.04 13.37,9.04 13.38,9.02 14.85,5.61 
		14.87,5.57 	"/>
	<path class="st5" d="M2.11,11.19c-0.42,0-0.78-0.15-1.07-0.44S0.6,10.11,0.6,9.7c0-0.41,0.15-0.76,0.44-1.05
		c0.29-0.29,0.65-0.44,1.07-0.44c0.16,0,0.33,0.03,0.49,0.09c0.16,0.06,0.3,0.14,0.42,0.25l0.01,0.01L2.84,8.97L2.83,8.95
		c-0.2-0.2-0.45-0.31-0.74-0.31c-0.29,0-0.54,0.1-0.75,0.31c-0.2,0.2-0.31,0.45-0.31,0.75c0,0.29,0.1,0.54,0.31,0.75
		c0.2,0.2,0.45,0.31,0.75,0.31c0.3,0,0.55-0.1,0.74-0.31l0.01-0.01l0.19,0.41l-0.01,0.01C2.9,10.96,2.76,11.04,2.6,11.1
		C2.43,11.16,2.27,11.19,2.11,11.19"/>
	<path class="st5" d="M2.11,8.2c-0.42,0-0.78,0.15-1.08,0.44C0.74,8.94,0.59,9.29,0.59,9.7c0,0.41,0.15,0.77,0.45,1.06
		c0.3,0.29,0.66,0.44,1.08,0.44c0.16,0,0.33-0.03,0.49-0.09c0.16-0.06,0.31-0.15,0.43-0.26l0.01-0.01l-0.01-0.01l-0.18-0.39
		l-0.01-0.03l-0.02,0.02c-0.19,0.2-0.44,0.31-0.73,0.31c-0.29,0-0.54-0.1-0.74-0.3c-0.2-0.2-0.3-0.45-0.3-0.74
		c0-0.29,0.1-0.54,0.3-0.74c0.2-0.2,0.45-0.3,0.74-0.3c0.29,0,0.54,0.1,0.73,0.3l0.02,0.02l0.01-0.03l0.18-0.39l0.01-0.01L3.03,8.54
		C2.91,8.43,2.76,8.35,2.6,8.29C2.44,8.23,2.27,8.2,2.11,8.2 M2.11,8.23c0.16,0,0.32,0.03,0.48,0.09c0.16,0.06,0.3,0.14,0.42,0.25
		L2.83,8.95c-0.2-0.21-0.45-0.31-0.75-0.31c-0.29,0-0.55,0.1-0.75,0.31C1.12,9.16,1.02,9.41,1.02,9.7c0,0.29,0.1,0.55,0.31,0.75
		c0.21,0.21,0.46,0.31,0.75,0.31c0.3,0,0.55-0.1,0.75-0.31l0.18,0.39c-0.12,0.11-0.26,0.19-0.42,0.25
		c-0.16,0.06-0.32,0.09-0.48,0.09c-0.41,0-0.77-0.14-1.06-0.43S0.61,10.11,0.61,9.7c0-0.41,0.15-0.75,0.44-1.04
		C1.34,8.37,1.69,8.23,2.11,8.23"/>
	<path class="st5" d="M3.81,9.15C3.9,8.97,4.03,8.83,4.2,8.73c0.17-0.1,0.37-0.15,0.6-0.15v0.54C4.65,9.07,4.5,9.08,4.35,9.14
		C3.99,9.28,3.81,9.56,3.81,9.99v1.1H3.32V8.62h0.49V9.15z"/>
	<polygon class="st5" points="6.89,8.58 6.16,10.26 5.44,8.58 4.89,8.58 5.89,10.88 5.23,12.37 5.77,12.36 7.44,8.58 	"/>
	<path class="st5" d="M8.27,10.37c0.15,0.15,0.34,0.23,0.55,0.23c0.22,0,0.4-0.08,0.55-0.23c0.15-0.15,0.23-0.34,0.23-0.55
		s-0.08-0.4-0.23-0.55C9.22,9.11,9.04,9.03,8.82,9.03c-0.22,0-0.4,0.08-0.55,0.23C8.12,9.41,8.04,9.6,8.04,9.81
		S8.12,10.21,8.27,10.37 M8.86,8.54c0.36,0,0.65,0.12,0.88,0.37s0.35,0.55,0.35,0.9c0,0.36-0.12,0.66-0.35,0.9s-0.53,0.37-0.88,0.37
		c-0.34,0-0.62-0.13-0.82-0.4v1.68H7.55V8.58h0.49v0.36C8.25,8.67,8.52,8.54,8.86,8.54"/>
	<path class="st5" d="M10.39,10.28V9.11h-0.33V8.62h0.33V7.5h0.49v1.12h0.49v0.49h-0.49v1.03c0,0.24,0.03,0.38,0.1,0.43
		c0.1,0.08,0.23,0.07,0.4-0.01v0.5c-0.1,0.05-0.22,0.07-0.36,0.07C10.59,11.13,10.39,10.85,10.39,10.28"/>
	<path class="st5" d="M12.12,10.4c0.15,0.15,0.34,0.23,0.55,0.23c0.21,0,0.4-0.08,0.55-0.23c0.15-0.15,0.23-0.34,0.23-0.55
		c0-0.21-0.08-0.4-0.23-0.55c-0.15-0.15-0.34-0.23-0.55-0.23c-0.21,0-0.4,0.08-0.55,0.23c-0.15,0.15-0.23,0.34-0.23,0.55
		C11.89,10.07,11.97,10.25,12.12,10.4 M11.77,8.95c0.25-0.25,0.55-0.37,0.9-0.37c0.35,0,0.65,0.12,0.9,0.37
		c0.25,0.25,0.37,0.55,0.37,0.9c0,0.35-0.12,0.65-0.37,0.9c-0.25,0.25-0.55,0.37-0.9,0.37c-0.35,0-0.65-0.12-0.9-0.37
		c-0.25-0.25-0.37-0.55-0.37-0.9C11.4,9.5,11.52,9.2,11.77,8.95"/>
	<path class="st5" d="M3.61,5.76c-0.12-0.14-0.3-0.21-0.52-0.21c-0.21,0-0.38,0.06-0.51,0.19V4.79V4.76H2.55H2.2H2.17v0.03v2.54
		v0.03H2.2h0.35h0.03h0V7.07l0.44,0.09L2.58,6.85V6.56l0.44,0.09L2.58,6.34v-0.3c0,0,1.03,0.07,1.07,1.32c0,0,0,0,0,0h0.11h0.03
		V7.33V6.37C3.79,6.1,3.73,5.9,3.61,5.76"/>
	<rect x="2.17" y="7.89" class="st5" width="0.4" height="0.56"/>
	<rect x="1.53" y="7.89" class="st5" width="0.4" height="0.56"/>
	<rect x="2.17" y="10.88" class="st5" width="0.4" height="0.56"/>
	<rect x="1.53" y="10.88" class="st5" width="0.4" height="0.56"/>
</g>
</svg>
